<svg width="800" height="500" viewBox="0 0 800 500" xmlns="http://www.w3.org/2000/svg">
  <rect width="800" height="500" fill="#f7efe6"/>
  <rect x="110" y="160" width="580" height="250" rx="18" fill="#ffffff" stroke="#e8d9c9" stroke-width="6"/>
  <rect x="160" y="210" width="140" height="110" rx="10" fill="#fef3c7" stroke="#e4b353" stroke-width="4"/>
  <rect x="330" y="210" width="140" height="110" rx="10" fill="#fde8d6" stroke="#d08c5a" stroke-width="4"/>
  <rect x="500" y="210" width="140" height="110" rx="10" fill="#ffe1d6" stroke="#c9776a" stroke-width="4"/>
  <rect x="350" y="330" width="100" height="80" rx="8" fill="#c05621"/>
  <rect x="360" y="300" width="80" height="40" rx="6" fill="#f8c59d"/>
  <polygon points="400,80 680,170 120,170" fill="#c05621"/>
  <rect x="170" y="120" width="70" height="60" rx="8" fill="#ffffff" stroke="#e8d9c9" stroke-width="4"/>
  <rect x="560" y="120" width="70" height="60" rx="8" fill="#ffffff" stroke="#e8d9c9" stroke-width="4"/>
  <circle cx="205" cy="145" r="14" fill="#f8c59d"/>
  <circle cx="595" cy="145" r="14" fill="#f8c59d"/>
  <rect x="90" y="410" width="620" height="20" rx="10" fill="#e8d9c9"/>
  <text x="400" y="470" text-anchor="middle" font-family="Georgia, serif" font-size="28" fill="#7a4b2b">Hostel House</text>
</svg>
